<svg width="361" height="122" viewBox="0 0 361 122" fill="none" xmlns="http://www.w3.org/2000/svg">
<path d="M42.24 42.368V78.592C42.24 81.7493 42.752 83.968 43.776 85.248C44.8 86.4427 46.3787 87.296 48.512 87.808V90.624L34.56 98.432C32.6827 97.664 30.9333 96.4267 29.312 94.72C27.6907 92.928 26.88 91.3067 26.88 89.856L10.88 98.432C10.624 98.2613 10.24 98.048 9.728 97.792C9.216 97.4507 8.32 96.8107 7.04 95.872C5.84534 94.848 4.77867 93.7813 3.84 92.672C1.28 89.856 3.8147e-06 86.656 3.8147e-06 83.072V62.08C3.8147e-06 60.7147 2.21867 58.9653 6.656 56.832C11.0933 54.6987 15.5307 52.9493 19.968 51.584L26.752 49.408C26.752 44.544 25.472 41.1733 22.912 39.296C20.352 37.3333 15.4027 36.352 8.064 36.352V32.512C21.2907 27.8187 28.7147 25.472 30.336 25.472C33.152 25.472 35.84 27.3067 38.4 30.976C40.96 34.6453 42.24 38.4427 42.24 42.368ZM15.36 78.464C15.36 80.6827 16 82.5173 17.28 83.968C18.6453 85.3333 20.1387 86.016 21.76 86.016C23.3813 86.016 25.088 85.376 26.88 84.096V55.168C24.7467 55.936 23.1253 56.576 22.016 57.088C20.992 57.6 19.8827 58.4107 18.688 59.52C16.4693 61.568 15.36 65.1093 15.36 70.144V78.464ZM55.06 89.728V46.336C55.06 43.52 54.4627 41.088 53.268 39.04C52.0733 36.992 50.58 35.968 48.788 35.968V33.152C49.3853 33.0667 54.036 30.464 62.74 25.344C63.3373 25.5147 64.0627 25.7707 64.916 26.112C65.7693 26.368 66.8787 27.1787 68.244 28.544C69.6947 29.9093 70.42 31.488 70.42 33.28C70.932 33.024 72.3827 32.2133 74.772 30.848C81.0867 27.264 84.8413 25.472 86.036 25.472C88.7667 25.472 91.3267 27.264 93.716 30.848C96.1053 34.432 97.3 37.7173 97.3 40.704V79.488C97.3 84.1813 99.3907 86.9547 103.572 87.808V90.624L89.62 98.432C87.7427 97.664 85.9933 96.4267 84.372 94.72C82.7507 92.928 81.94 91.264 81.94 89.728V52.608C81.94 47.8293 81.3853 44.2027 80.276 41.728C79.252 39.168 77.3747 37.888 74.644 37.888L70.42 38.656V79.488C70.42 84.6933 72.1693 87.6373 75.668 88.32V91.136L62.74 98.432C60.8627 97.664 59.1133 96.4267 57.492 94.72C55.8707 92.928 55.06 91.264 55.06 89.728ZM149.74 42.368V78.592C149.74 81.7493 150.252 83.968 151.276 85.248C152.3 86.4427 153.879 87.296 156.012 87.808V90.624L142.06 98.432C140.183 97.664 138.433 96.4267 136.812 94.72C135.191 92.928 134.38 91.3067 134.38 89.856L118.38 98.432C118.124 98.2613 117.74 98.048 117.228 97.792C116.716 97.4507 115.82 96.8107 114.54 95.872C113.345 94.848 112.279 93.7813 111.34 92.672C108.78 89.856 107.5 86.656 107.5 83.072V62.08C107.5 60.7147 109.719 58.9653 114.156 56.832C118.593 54.6987 123.031 52.9493 127.468 51.584L134.252 49.408C134.252 44.544 132.972 41.1733 130.412 39.296C127.852 37.3333 122.903 36.352 115.564 36.352V32.512C128.791 27.8187 136.215 25.472 137.836 25.472C140.652 25.472 143.34 27.3067 145.9 30.976C148.46 34.6453 149.74 38.4427 149.74 42.368ZM122.86 78.464C122.86 80.6827 123.5 82.5173 124.78 83.968C126.145 85.3333 127.639 86.016 129.26 86.016C130.881 86.016 132.588 85.376 134.38 84.096V55.168C132.247 55.936 130.625 56.576 129.516 57.088C128.492 57.6 127.383 58.4107 126.188 59.52C123.969 61.568 122.86 65.1093 122.86 70.144V78.464ZM156.288 33.152L170.368 25.472C170.965 25.6427 171.648 25.8987 172.416 26.24C173.269 26.496 174.379 27.3067 175.744 28.672C177.195 30.0373 177.92 31.5733 177.92 33.28C178.347 33.1093 180.352 31.7867 183.936 29.312C187.605 26.752 189.952 25.472 190.976 25.472C193.707 25.472 196.267 27.264 198.656 30.848C201.045 34.432 202.24 37.7173 202.24 40.704V46.976L189.056 54.4L186.88 52.608C186.88 45.44 186.197 41.344 184.832 40.32C183.296 39.2107 180.992 38.656 177.92 38.656V79.488C177.92 84.6933 179.669 87.6373 183.168 88.32V91.136L170.24 98.432C168.363 97.664 166.613 96.4267 164.992 94.72C163.371 92.928 162.56 91.264 162.56 89.728V47.232C162.56 43.4773 161.877 40.6613 160.512 38.784C159.232 36.9067 157.824 35.968 156.288 35.968V33.152ZM228.849 37.888C227.996 37.888 227.228 38.3147 226.545 39.168V74.496C226.545 81.0667 229.361 85.12 234.993 86.656C237.894 87.3387 241.35 87.68 245.361 87.68V91.392C231.366 96.0853 223.9 98.432 222.961 98.432C220.401 98.432 217.798 96.64 215.153 93.056C212.508 89.3867 211.185 85.12 211.185 80.256V37.248C211.185 36.6507 216.049 34.56 225.777 30.976C235.59 27.3067 241.222 25.472 242.673 25.472C243.185 25.472 243.782 26.7093 244.465 29.184C245.148 31.6587 245.916 34.6453 246.769 38.144C247.708 41.6427 248.646 44.2453 249.585 45.952C250.609 47.5733 252.486 48.384 255.217 48.384V50.944C253.34 51.7973 250.14 53.3333 245.617 55.552C241.18 57.6853 238.79 58.752 238.449 58.752C237.169 58.752 235.548 55.296 233.585 48.384C231.622 41.3867 230.044 37.888 228.849 37.888ZM262.935 89.728V26.368C262.935 24.064 262.551 22.4427 261.783 21.504C261.015 20.48 259.692 19.968 257.815 19.968V16.384C268.908 10.5813 278.807 5.12 287.511 0L289.559 4.096C288.706 4.52267 287.511 5.376 285.975 6.65601C284.439 7.85067 283.159 9.08801 282.135 10.368C279.575 13.6107 278.295 17.28 278.295 21.376V32.256C287.084 27.7333 292.204 25.472 293.655 25.472C296.386 25.472 298.988 27.1787 301.463 30.592C303.938 34.0053 305.175 37.76 305.175 41.856V79.488C305.175 84.1813 307.266 86.9547 311.447 87.808V90.624L297.495 98.432C295.618 97.664 293.868 96.4267 292.247 94.72C290.626 92.928 289.815 91.264 289.815 89.728V52.608C289.815 44.2453 288.279 39.5093 285.207 38.4C283.756 37.888 281.452 37.632 278.295 37.632V79.488C278.295 84.6933 280.044 87.6373 283.543 88.32V91.136L270.615 98.432C268.738 97.664 266.988 96.4267 265.367 94.72C263.746 92.928 262.935 91.264 262.935 89.728ZM360.303 34.048V84.864C360.303 88.1067 358.852 92.7147 355.951 98.688C353.05 104.747 349.978 110.037 346.735 114.56C343.492 119.168 341.274 121.472 340.079 121.472C337.946 121.472 335.087 120.832 331.503 119.552C327.919 118.272 324.847 116.992 322.287 115.712L318.575 113.792V109.952H322.927C326.255 109.952 330.052 108.032 334.319 104.192C338.586 100.437 342.127 95.4027 344.943 89.088C335.3 93.6107 329.754 95.872 328.303 95.872C325.658 95.872 323.268 94.208 321.135 90.88C319.087 87.4667 318.063 83.6693 318.063 79.488V44.288C318.063 39.5947 315.972 36.8213 311.791 35.968V33.152L325.743 25.344C327.62 26.112 329.37 27.392 330.991 29.184C332.612 30.8907 333.423 32.512 333.423 34.048V68.736C333.423 74.7093 334.362 78.72 336.239 80.768C338.116 82.7307 341.018 83.712 344.943 83.712V44.288C344.943 39.0827 343.194 36.1387 339.695 35.456V32.64L352.623 25.344C354.5 26.112 356.25 27.392 357.871 29.184C359.492 30.8907 360.303 32.512 360.303 34.048Z" fill="black"/>
</svg>
